PathFileType	4	(x/y/z)	S02_P20_T16
DataRate	CameraRate	NumFrames	NumMarkers	Units	OrigDataRate	OrigDataStartFrame	OrigNumFrames
240	240	6	51	mm	240	1	342
Frame#	Time	Sternum			R.Acromium			L.Acromium			Top.Head			R.ASIS			L.ASIS			R.PSIS			L.PSIS			R.Great.Tro			L.Great.Tro			R.Iliac.Crest			L.Iliac.Crest			V.Sacral			R.Thigh.Upper.Post			R.Thigh.Lower.Ant			R.Thigh.Lower.Post			R.Thigh.Upper.Ant			R.Knee.Lat			R.Knee.Med			R.Shank.Upper.Post			R.Shank.Lower.Ant			R.Shank.Lower.Post			R.Shank.Upper.Ant			R.Ankle.Lat			R.Ankle.Med			R.Heel.Upper			R.Heel.Med			R.Heel.Lat			R.Toe.Lat			R.Toe.Med			R.Toe.Tip			L.Thigh.Upper.Post			L.Thigh.Lower.Ant			L.Thigh.Lower.Post			L.Thigh.Upper.Ant			L.Knee.Lat			L.Knee.Med			L.Shank.Upper.Post			L.Shank.Lower.Ant			L.Shank.Lower.Post			L.Shank.Upper.Ant			L.Ankle.Lat			L.Ankle.Med			L.Heel.Upper			L.Heel.Med			L.Heel.Lat			L.Toe.Lat			L.Toe.Med			L.Toe.Tip			Cervical.Spine			Back			
		X1	Y1	Z1	X2	Y2	Z2	X3	Y3	Z3	X4	Y4	Z4	X5	Y5	Z5	X6	Y6	Z6	X7	Y7	Z7	X8	Y8	Z8	X9	Y9	Z9	X10	Y10	Z10	X11	Y11	Z11	X12	Y12	Z12	X13	Y13	Z13	X14	Y14	Z14	X15	Y15	Z15	X16	Y16	Z16	X17	Y17	Z17	X18	Y18	Z18	X19	Y19	Z19	X20	Y20	Z20	X21	Y21	Z21	X22	Y22	Z22	X23	Y23	Z23	X24	Y24	Z24	X25	Y25	Z25	X26	Y26	Z26	X27	Y27	Z27	X28	Y28	Z28	X29	Y29	Z29	X30	Y30	Z30	X31	Y31	Z31	X32	Y32	Z32	X33	Y33	Z33	X34	Y34	Z34	X35	Y35	Z35	X36	Y36	Z36	X37	Y37	Z37	X38	Y38	Z38	X39	Y39	Z39	X40	Y40	Z40	X41	Y41	Z41	X42	Y42	Z42	X43	Y43	Z43	X44	Y44	Z44	X45	Y45	Z45	X46	Y46	Z46	X47	Y47	Z47	X48	Y48	Z48	X49	Y49	Z49	X50	Y50	Z50	X51	Y51	Z51	

1	0	-1210.6	1080.2	299.91	-1288.2	1321.5	458.52	-1336	1330.5	169.59	-1240.3	1606.3	309.71	-1255.3	902.81	419.59	NaN	NaN	NaN	-1464.4	957.77	359	-1475	965.05	285.04	-1352.9	801.84	508.87	-1363	821.65	117.63	-1355.7	957.35	475.45	-1370.4	960.88	140.66	-1501.8	919.17	315.89	-1398.4	600.59	484.51	-1383.8	505.94	451.83	NaN	NaN	NaN	-1336.6	591.44	462.27	-1452.2	442.55	447.55	-1479	438.07	304.09	-1607	279.54	432.99	NaN	NaN	NaN	-1614.7	201.28	424.88	-1544.2	241.54	432.08	-1657.9	115.09	410.66	-1639.3	124.51	326.88	-1715	106.6	354.55	-1702.7	73.863	326.37	-1719	74.763	388.63	-1561.7	43.787	436.24	-1522.3	38.028	331.37	-1473.6	60.308	388.55	-1296.4	591.33	137.77	-1195	548.47	146.71	-1263.6	510.37	162.94	-1237.9	630.37	122.2	-1182.6	469.34	157.65	-1189.1	465.03	300.51	-1214.6	284.58	162.65	-1120.4	222.83	169.12	-1196.4	216.58	178.93	-1149.1	292.67	154.39	-1125.4	107.26	183.13	-1110.3	110.82	264.79	-1170.4	57	221.24	-1154.3	39.563	257.14	-1156.1	29.217	196.14	-996.47	65.151	162.25	-980.14	95.08	265.49	-928.34	124.69	215.78	-1390.8	1390	328.63	-1472.8	1141.2	344.49
2	0.0041667	-1205.4	1079.2	299.48	-1283.3	1320.6	457.73	-1330.8	1329.5	168.76	-1235.6	1605.6	309.02	-1250.3	901.7	419.75	NaN	NaN	NaN	-1459.1	956.75	358.39	-1469.7	964.07	284.44	-1347.7	800.84	508.57	-1357.3	820.92	117.58	-1350.2	956.09	475.15	-1364.8	959.64	140.1	-1496.4	918.06	315.23	-1393.1	599.63	484.24	-1378.4	504.82	451.89	NaN	NaN	NaN	-1331.1	590.51	462.13	-1446.7	441.48	447.44	-1473.1	436.86	303.92	-1603.4	280.47	432.95	NaN	NaN	NaN	-1611.5	201.64	424.81	-1541.2	241.62	432.25	-1656.8	116.64	411.05	-1638.2	126.15	327.22	-1713.7	109.09	354.98	-1701.9	76.331	326.63	-1718.4	77.218	388.91	-1561.4	43.745	436.35	-1522.3	38.022	331.44	-1473.8	60.135	388.58	-1291.1	590.53	137.77	-1189.6	547.59	146.88	-1258.3	509.47	162.89	-1232.4	629.57	122.42	-1177.4	468.25	157.74	-1183.5	464.23	300.11	-1211	283.68	162.47	-1117.5	221.07	169.69	-1193.3	215.33	178.88	-1145.4	291.16	154.82	-1123.7	106.21	183.63	-1108.8	109.36	265.39	-1169.3	57.274	221.48	-1153.9	39.283	257.27	-1155.5	29.425	196.21	-995.28	62.596	163.05	-979.03	91.798	266.52	-926.56	120.7	217.17	-1386	1389.1	327.71	-1467.7	1140.2	343.69
3	0.0083333	-1200	1078.1	299.05	-1278.2	1319.7	456.92	-1325.3	1328.5	167.88	-1230.7	1604.8	308.31	-1245	900.58	419.89	NaN	NaN	NaN	-1453.6	955.7	357.78	-1464.2	963.06	283.83	-1342.2	799.8	508.25	-1351.4	820.18	117.5	-1344.5	954.83	474.83	-1359	958.38	139.51	-1490.8	916.92	314.56	-1387.5	598.62	483.94	-1372.6	503.69	451.91	NaN	NaN	NaN	-1325.2	589.56	461.99	-1441	440.35	447.34	-1467	435.58	303.76	-1599.5	281.49	432.91	NaN	NaN	NaN	-1608.3	202	424.75	-1538	241.74	432.44	-1655.5	118.31	411.46	-1637	127.91	327.58	-1712.3	111.8	355.44	-1701	79.02	326.9	-1717.6	79.887	389.2	-1561.1	43.724	436.47	-1522.3	38.027	331.52	-1473.9	59.936	388.6	-1285.5	589.73	137.78	-1184	546.69	147.04	-1252.8	508.57	162.85	-1226.8	628.75	122.64	-1172	467.14	157.83	-1177.7	463.42	299.72	-1207.3	282.79	162.31	-1114.5	219.3	170.3	-1190	214.08	178.87	-1141.5	289.63	155.28	-1121.9	105.16	184.17	-1107.3	107.88	266.01	-1168.2	57.577	221.75	-1153.5	39.016	257.42	-1154.9	29.667	196.29	-994.06	60.016	163.86	-977.88	88.429	267.58	-924.73	116.59	218.58	-1381	1388.2	326.75	-1462.5	1139.1	342.83
4	0.0125	-1194.4	1077.1	298.59	-1273	1318.8	456.08	-1319.6	1327.4	166.97	-1225.7	1604	307.58	-1239.5	899.48	420	-1227.9	902.32	208.71	-1448	954.63	357.16	-1458.4	962.03	283.22	-1336.6	798.73	507.93	-1345.3	819.44	117.39	-1338.6	953.58	474.52	-1352.9	957.12	138.9	-1485	915.74	313.87	-1381.7	597.58	483.62	-1366.4	502.55	451.87	NaN	NaN	NaN	-1319.1	588.59	461.84	-1434.9	439.18	447.26	-1460.5	434.22	303.62	-1595.3	282.59	432.88	NaN	NaN	NaN	-1605.2	202.35	424.68	-1534.6	241.91	432.67	-1654.2	120.11	411.89	-1635.6	129.79	327.98	-1710.8	114.73	355.92	-1699.9	81.938	327.18	-1716.6	82.78	389.49	-1560.7	43.731	436.6	-1522.3	38.047	331.6	-1474	59.708	388.63	-1279.8	588.92	137.79	-1178.3	545.78	147.19	-1247.1	507.66	162.82	-1221	627.93	122.84	-1166.4	466.03	157.93	-1171.7	462.61	299.36	-1203.5	281.92	162.19	-1111.3	217.52	170.95	-1186.7	212.85	178.91	-1137.5	288.11	155.77	-1120.1	104.14	184.75	-1105.8	106.41	266.67	-1167.1	57.91	222.04	-1153	38.766	257.58	-1154.3	29.945	196.39	-992.85	57.448	164.66	-976.7	85.006	268.65	-922.88	112.42	220	-1375.7	1387.3	325.74	-1457	1138.1	341.93
5	0.016667	-1188.6	1076.1	298.13	-1267.7	1317.9	455.22	-1313.7	1326.4	166.02	-1220.5	1603.3	306.82	-1233.9	898.41	420.07	-1222.2	901.46	208.58	-1442.2	953.55	356.54	-1452.5	960.99	282.6	-1330.7	797.64	507.6	-1339.1	818.72	117.26	-1332.6	952.36	474.19	-1346.7	955.87	138.28	-1479.1	914.54	313.19	-1375.6	596.5	483.29	-1359.9	501.44	451.78	NaN	NaN	NaN	-1312.7	587.64	461.71	-1428.5	437.97	447.21	-1453.6	432.81	303.5	-1590.9	283.78	432.87	NaN	NaN	NaN	-1602.2	202.69	424.63	-1531	242.14	432.92	-1652.6	122.06	412.36	-1633.9	131.78	328.41	-1709	117.9	356.41	-1698.7	85.097	327.48	-1715.5	85.91	389.8	-1560.4	43.777	436.73	-1522.3	38.089	331.69	-1474.1	59.446	388.66	-1273.9	588.13	137.8	-1172.4	544.87	147.32	-1241.3	506.77	162.81	-1215	627.1	123.03	-1160.7	464.92	158.03	-1165.6	461.82	299.02	-1199.5	281.1	162.11	-1108.1	215.77	171.63	-1183.3	211.69	178.98	-1133.4	286.61	156.28	-1118.3	103.16	185.35	-1104.2	104.96	267.34	-1166	58.271	222.36	-1152.6	38.539	257.76	-1153.7	30.262	196.5	-991.66	54.925	165.45	-975.49	81.565	269.71	-921.01	108.22	221.4	-1370.4	1386.4	324.68	-1451.4	1137.1	340.98
6	0.020833	-1182.7	1075.1	297.66	-1262.3	1317	454.35	-1307.8	1325.4	165.04	-1215.3	1602.6	306.05	-1228.2	897.38	420.11	-1216.2	900.61	208.43	-1436.2	952.46	355.93	-1446.5	959.96	281.99	-1324.7	796.52	507.26	-1332.7	818.02	117.09	-1326.4	951.18	473.87	-1340.4	954.66	137.65	-1473	913.34	312.51	-1369.3	595.41	482.95	-1353	500.35	451.63	NaN	NaN	NaN	-1306.1	586.69	461.58	-1421.8	436.73	447.19	-1446.5	431.32	303.42	-1586.3	285.07	432.87	-1553.3	179.7	414.86	-1599.5	203.01	424.57	-1527.1	242.43	433.2	-1650.9	124.14	412.84	-1632	133.9	328.87	-1707	121.31	356.92	-1697.3	88.508	327.78	-1714.2	89.289	390.12	-1560	43.873	436.87	-1522.3	38.159	331.79	-1474.2	59.149	388.7	-1268	587.35	137.81	-1166.4	543.97	147.44	-1235.4	505.91	162.81	-1209	626.28	123.19	-1154.9	463.84	158.13	-1159.4	461.06	298.72	-1195.4	280.34	162.06	-1104.8	214.07	172.33	-1179.8	210.59	179.11	-1129.2	285.17	156.82	-1116.5	102.22	185.99	-1102.6	103.55	268.03	-1164.9	58.658	222.7	-1152.1	38.341	257.96	-1153.1	30.616	196.63	-990.49	52.482	166.21	-974.28	78.144	270.77	-919.15	104.05	222.78	-1365	1385.6	323.59	-1445.7	1136.1	339.99
